<svg xmlns="http://www.w3.org/2000/svg" viewBox="0 0 480 200" width="480" height="200">
  <defs>
    <linearGradient id="bg1" x1="0%" y1="0%" x2="100%" y2="100%">
      <stop offset="0%" style="stop-color:#0d1117;stop-opacity:1" />
      <stop offset="100%" style="stop-color:#161b22;stop-opacity:1" />
    </linearGradient>
  </defs>
  <rect width="480" height="200" rx="8" fill="url(#bg1)" stroke="#30363d" stroke-width="1"/>
  <!-- Header -->
  <rect x="0" y="0" width="480" height="48" rx="8" fill="#1c2128"/>
  <rect x="0" y="24" width="480" height="24" fill="#1c2128"/>
  <circle cx="16" cy="24" r="5" fill="#ff5f56"/>
  <circle cx="30" cy="24" r="5" fill="#ffbd2e"/>
  <circle cx="44" cy="24" r="5" fill="#28ca42"/>
  <text x="60" y="31" fill="#8b949e" font-family="Arial,sans-serif" font-size="11" font-weight="600">enterprise-rag-qa</text>
  <!-- Content -->
  <text x="20" y="70" fill="#e6edf3" font-family="Arial,sans-serif" font-size="14" font-weight="bold">企业知识库 RAG 问答系统</text>
  <text x="20" y="90" fill="#8b949e" font-family="Arial,sans-serif" font-size="10">文档解析 → 混合检索 → Cross-Encoder 重排 → 引用溯源</text>
  <!-- Metrics -->
  <rect x="20" y="105" width="70" height="22" rx="4" fill="#0f3d2e" stroke="#2da144" stroke-width="0.5"/>
  <text x="55" y="120" fill="#3fb950" font-family="Arial,sans-serif" font-size="10" text-anchor="middle" font-weight="bold">Recall@1 87.4%</text>
  
  <rect x="100" y="105" width="70" height="22" rx="4" fill="#0f3d2e" stroke="#2da144" stroke-width="0.5"/>
  <text x="135" y="120" fill="#3fb950" font-family="Arial,sans-serif" font-size="10" text-anchor="middle" font-weight="bold">Faithfulness 94.1%</text>
  
  <rect x="180" y="105" width="70" height="22" rx="4" fill="#1a1a2e" stroke="#a78bfa" stroke-width="0.5"/>
  <text x="215" y="120" fill="#a78bfa" font-family="Arial,sans-serif" font-size="10" text-anchor="middle" font-weight="bold">P95 32s→10s</text>
  
  <!-- Topics -->
  <rect x="20" y="135" width="50" height="18" rx="3" fill="#1a1a2e" stroke="#30363d" stroke-width="0.5"/>
  <text x="45" y="148" fill="#8b949e" font-family="Arial,sans-serif" font-size="9" text-anchor="middle">RAG</text>
  <rect x="75" y="135" width="55" height="18" rx="3" fill="#1a1a2e" stroke="#30363d" stroke-width="0.5"/>
  <text x="102" y="148" fill="#8b949e" font-family="Arial,sans-serif" font-size="9" text-anchor="middle">PGvector</text>
  <rect x="135" y="135" width="55" height="18" rx="3" fill="#1a1a2e" stroke="#30363d" stroke-width="0.5"/>
  <text x="162" y="148" fill="#8b949e" font-family="Arial,sans-serif" font-size="9" text-anchor="middle">DeepSeek</text>
  <rect x="195" y="135" width="55" height="18" rx="3" fill="#1a1a2e" stroke="#30363d" stroke-width="0.5"/>
  <text x="222" y="148" fill="#8b949e" font-family="Arial,sans-serif" font-size="9" text-anchor="middle">RAGAs</text>
  <!-- Link -->
  <text x="20" y="180" fill="#58a6ff" font-family="Arial,sans-serif" font-size="10">github.com/zengbohan1/enterprise-rag-qa →</text>
</svg>